<svg xmlns="http://www.w3.org/2000/svg" width="82.7" height="22.8" viewBox="0 0 82.7 22.8"><g transform="translate(0 -2)"><path d="M16.5,7.1A2.476,2.476,0,0,0,19,4.6,2.562,2.562,0,0,0,16.5,2,2.476,2.476,0,0,0,14,4.5,2.442,2.442,0,0,0,16.5,7.1Z" fill="#1dbf73" fill-rule="evenodd"/><path d="M19.1,8.8H7.4V8c0-1.5,1.5-1.5,2.3-1.5a6.044,6.044,0,0,1,1.3.1V2.4a16.974,16.974,0,0,0-1.9-.1c-2.4,0-7,.7-7,5.8v.6H0v3.8H2.1v8.1H.1v3.8H9.7V20.6H7.4V12.5h6.4v8.1h-2v3.8h9.3V20.6h-2ZM39,8.8H30.6v3.8H32l-1.8,5.7a10.778,10.778,0,0,0-.4,2.1h-.1a12.306,12.306,0,0,0-.4-2.1l-1.8-5.7h1.4V8.8H20.5v3.8h1.8l4.4,11.9h6.2l4.4-11.9H39Zm5.5,5.9A2.586,2.586,0,0,1,47,12.4a2.146,2.146,0,0,1,2,2.3Zm10,1.3c0-4.3-2.6-7.6-7.3-7.6A7.819,7.819,0,0,0,39,16.6c0,4.2,3,8.2,8.6,8.2a11.2,11.2,0,0,0,6.8-2.2L52.5,19a8.686,8.686,0,0,1-4.4,1.5,3.543,3.543,0,0,1-3.7-2.9h10a11.8,11.8,0,0,1,.1-1.6Zm22.4-3.6c-.1,0,0-.3,0-.8v-.8c0-1.4-.8-2-2.2-2h-5v3.8h1.5a.632.632,0,0,1,.7.7v7.4H69.8v3.8h9.6V20.7H77.3V18.4c0-2.9,1.4-4.7,4.3-4.7a6.268,6.268,0,0,1,1.1.1V8.6a2.18,2.18,0,0,0-.6-.1,5.424,5.424,0,0,0-5.2,3.9m-14,0c-.1,0,0-.3,0-.8v-.8c0-1.4-.8-2-2.2-2h-5v3.8h1.5a.632.632,0,0,1,.7.7v7.4H55.8v3.8h9.6V20.7H63.3V18.4c0-2.9,1.4-4.7,4.3-4.7a6.268,6.268,0,0,1,1.1.1V8.6a2.18,2.18,0,0,0-.6-.1,5.424,5.424,0,0,0-5.2,3.9" fill="#1dbf73" fill-rule="evenodd"/></g></svg>